<svg width="65" height="65" viewBox="0 0 65 65" fill="none" xmlns="http://www.w3.org/2000/svg">
<path fill-rule="evenodd" clip-rule="evenodd" d="M0 12.9953C0 5.81818 5.82029 0 13 0H52C59.1796 0 65 5.81818 65 12.9953V51.9811C65 59.1581 59.1796 64.9764 52 64.9764H13C5.82029 64.9764 0 59.1581 0 51.9811V12.9953ZM13 6.49764C9.41015 6.49764 6.5 9.40673 6.5 12.9953V51.9811C6.5 55.5697 9.41015 58.4787 13 58.4787H32.5V35.737H29.25C27.455 35.737 26 34.2825 26 32.4882C26 30.6939 27.455 29.2394 29.25 29.2394H32.5V24.3661C32.5 18.0862 37.5928 12.9953 43.875 12.9953H45.825C47.62 12.9953 49.075 14.4498 49.075 16.2441C49.075 18.0384 47.62 19.4929 45.825 19.4929H43.875C41.1827 19.4929 39 21.6747 39 24.3661V29.2394H45.825C47.62 29.2394 49.075 30.6939 49.075 32.4882C49.075 34.2825 47.62 35.737 45.825 35.737H39V58.4787H52C55.59 58.4787 58.5 55.5697 58.5 51.9811V12.9953C58.5 9.40673 55.59 6.49764 52 6.49764H13Z" fill="black"/>
</svg>
