<svg width="65" height="65" viewBox="0 0 65 65" fill="none" xmlns="http://www.w3.org/2000/svg">
<path fill-rule="evenodd" clip-rule="evenodd" d="M19.0764 0.398725C13.7858 0.637351 9.20014 1.93037 5.49735 5.61619C1.78163 9.32137 0.504209 13.9235 0.264902 19.1572C0.116143 22.4238 -0.753721 47.1024 1.7687 53.5743C3.46972 57.9405 6.81993 61.2977 11.2277 63.0035C13.2844 63.8032 15.6323 64.3446 19.0764 64.5026C47.874 65.8054 58.549 65.0961 63.0506 53.5743C63.8493 51.5234 64.3991 49.1785 64.5511 45.7442C65.8673 16.8832 64.3377 10.6274 59.3187 5.61619C55.3378 1.64659 50.6552 -1.05561 19.0764 0.398725ZM19.3415 58.6982C16.1885 58.5563 14.4778 58.0311 13.3362 57.5894C10.4645 56.4736 8.30755 54.3263 7.19833 51.4724C5.27741 46.5548 5.91451 23.1983 6.0859 19.4189C6.25406 15.7169 7.00431 12.3336 9.61728 9.72163C12.8512 6.49692 17.0293 4.91651 45.4777 6.19996C49.1902 6.36763 52.5825 7.11608 55.202 9.72163C58.4359 12.9463 60.0398 17.1551 58.7334 45.484C58.5911 48.6281 58.064 50.3341 57.6209 51.4724C54.6943 58.9698 47.9613 60.0106 19.3415 58.6982ZM45.7914 15.2357C45.7914 17.3705 47.528 19.1064 49.6721 19.1064C51.8161 19.1064 53.556 17.3705 53.556 15.2357C53.556 13.101 51.8161 11.3667 49.6721 11.3667C47.528 11.3667 45.7914 13.101 45.7914 15.2357ZM15.8037 32.4491C15.8037 41.5943 23.2384 49.0089 32.4096 49.0089C41.5809 49.0089 49.0156 41.5943 49.0156 32.4491C49.0156 23.3039 41.5809 15.8941 32.4096 15.8941C23.2384 15.8941 15.8037 23.3039 15.8037 32.4491ZM21.6311 32.4491C21.6311 26.5157 26.4561 21.7016 32.4096 21.7016C38.3632 21.7016 43.1881 26.5157 43.1881 32.4491C43.1881 38.3857 38.3632 43.2013 32.4096 43.2013C26.4561 43.2013 21.6311 38.3857 21.6311 32.4491Z" fill="black"/>
</svg>
