<svg width="65" height="65" viewBox="0 0 65 65" fill="none" xmlns="http://www.w3.org/2000/svg">
<path fill-rule="evenodd" clip-rule="evenodd" d="M20.2238 7.78124C27.8805 6.52573 37.1194 6.52573 44.7761 7.78124C51.7329 8.92195 57.1234 14.5732 58.1545 20.6604C59.4028 28.0294 59.4028 36.9469 58.1545 44.3159C57.1234 50.4031 51.7329 56.0544 44.7764 57.1952C37.1194 58.4506 27.8805 58.4506 20.2238 57.1952C13.2673 56.0544 7.87681 50.4031 6.84541 44.3159C5.59691 36.9469 5.59703 28.0294 6.84544 20.6605C7.87669 14.5732 13.2673 8.92195 20.2238 7.78124ZM45.6051 1.00924C37.3986 -0.336415 27.6016 -0.336415 19.395 1.00924C10.4882 2.46974 2.65956 9.82448 1.04677 19.3444C-0.34885 27.5824 -0.349004 37.3938 1.0468 45.6318C2.65971 55.1519 10.4882 62.5065 19.395 63.9671C27.6016 65.3128 37.3986 65.3128 45.6051 63.9671C54.5119 62.5065 62.3405 55.1519 63.9534 45.6318C65.3489 37.3938 65.3489 27.5824 63.9534 19.3444C62.3405 9.82444 54.5119 2.46974 45.6051 1.00924ZM28.2298 15.9635C27.323 15.2639 26.1575 15.1987 25.1968 15.7938C24.2361 16.3889 23.6363 17.5477 23.6363 18.8089V46.1674C23.6363 47.4286 24.2361 48.5876 25.1968 49.1826C26.1575 49.7776 27.323 49.7123 28.2298 49.013L45.957 35.3338C46.779 34.6994 47.2727 33.6317 47.2727 32.4881C47.2727 31.3446 46.779 30.2769 45.957 29.6425L28.2298 15.9635ZM38.9917 32.4881L29.5454 39.7775V25.1989L38.9917 32.4881Z" fill="black"/>
</svg>
